# AST/ASF file generated using VICON BodyLanguage
# -----------------------------------------------
:version 1.10
:name VICON
:units
  mass 1.0
  length 0.45
  angle deg
:documentation
   .ast/.asf automatically generated from VICON data using
   VICON BodyBuilder and BodyLanguage model FoxedUp or BRILLIANT.MOD
:root
   order TX TY TZ RX RY RZ
   axis XYZ
   position 0 0 0  
   orientation 0 0 0 
:bonedata
  begin
     id 1 
     name lhipjoint
     direction 0.78388 -0.462562 0.414208 
     length 3.01181 
     axis 0 0 0  XYZ
  end
  begin
     id 2 
     name lfemur
     direction 0.34202 -0.939693 0  
     length 6.04673  
     axis 0 0 20  XYZ
    dof rx ry rz
    limits (-160.0 20.0)
           (-70.0 70.0)
           (-60.0 70.0)
  end
  begin
     id 3 
     name ltibia
     direction 0.34202 -0.939693 0   
     length 7.211   
     axis 0 0 20   XYZ
    dof rx
    limits (-10.0 170.0)
  end
  begin
     id 4 
     name lfoot
     direction 0.121887 -0.334882 0.934344   
     length 2.13567   
     axis -90 7.62852e-016 20   XYZ
    dof rx rz
    limits (-45.0 90.0)
           (-70.0 20.0)
  end
  begin
     id 5 
     name ltoes
     direction 1.53555e-011 -4.2179e-011 1   
     length 1.05957   
     axis -90 7.62852e-016 20   XYZ
    dof rx
    limits (-90.0 20.0)
  end
  begin
     id 6 
     name rhipjoint
     direction -0.769387 -0.475875 0.426129   
     length 2.92756  
     axis 0 0 0  XYZ 
  end
  begin
     id 7 
     name rfemur
     direction -0.34202 -0.939693 0   
     length 6.35468   
     axis 0 0 -20   XYZ
    dof rx ry rz
    limits (-160.0 20.0)
           (-70.0 70.0)
           (-70.0 60.0)
  end
  begin
     id 8 
     name rtibia
     direction -0.34202 -0.939693 0   
     length 7.37886   
     axis 0 0 -20   XYZ
    dof rx
    limits (-10.0 170.0)
 end
 begin
     id 9 
     name rfoot
     direction -0.101763 -0.279592 0.954711   
     length 2.21478  
     axis -90 -7.62852e-016 -20   XYZ
    dof rx rz
    limits (-45.0 90.0)
           (-20.0 70.0)
  end
  begin
     id 10 
     name rtoes
     direction -1.53494e-011 -4.21851e-011 1   
     length 1.10506   
     axis -90 -7.62852e-016 -20   XYZ
    dof rx
    limits (-90.0 20.0)
  end
  begin
     id 11 
     name lowerback
     direction 0.00747405 0.999267 0.0375481   
     length 2.13259   
     axis 0 0 0   XYZ
    dof rx ry rz
    limits (-20.0 45.0)
           (-30.0 30.0)
           (-30.0 30.0)
  end
  begin
     id 12 
     name upperback
     direction 0.00661626 0.996177 0.0871029   
     length 2.10528   
     axis 0 0 0   XYZ
    dof rx ry rz
    limits (-20.0 45.0)
           (-30.0 30.0)
           (-30.0 30.0)
  end
  begin
     id 13 
     name thorax
     direction 0.00320659 0.997679 0.0680167   
     length 2.11338   
     axis 0 0 0   XYZ
    dof rx ry rz
    limits (-20.0 45.0)
           (-30.0 30.0)
           (-30.0 30.0)
  end
  begin
     id 14 
     name lowerneck
     direction 0.0374841 0.973033 0.227602   
     length 1.42765   
     axis 0 0 0   XYZ
    dof rx ry rz
    limits (-20.0 45.0)
           (-30.0 30.0)
           (-30.0 30.0)
  end
  begin
     id 15 
     name upperneck
     direction 0.00481585 0.989155 -0.146795   
     length 1.47593   
     axis 0 0 0   XYZ
    dof rx ry rz
    limits (-20.0 45.0)
           (-30.0 30.0)
           (-30.0 30.0)
  end
  begin
     id 16
     name head
     direction -0.00292522 0.997206 -0.0746423  
     length 1.48116  
     axis 0 0 0   XYZ
    dof rx ry rz
    limits (-20.0 45.0)
           (-30.0 30.0)
           (-30.0 30.0)
  end
  begin
     id 17 
     name lclavicle
     direction 0.951444 0.305606 0.0368784  
     length 3.01855  
     axis 0 0 0   XYZ
    dof ry rz
    limits (-20.0 10.0)
           (0.0 20.0)
  end
  begin
     id 18 
     name lhumerus
     direction 1 -4.48977e-011 2.61664e-027   
     length 5.52731   
     axis 180 -30 -90   XYZ
    dof rx ry rz
    limits (-60.0 90.0)
           (-90.0 90.0)
           (-90.0 90.0)
  end
  begin
     id 19
     name lradius
     direction 1 -4.48944e-011 8.22157e-027   
     length 3.11059   
     axis 180 -30 -90   XYZ
    dof rx
    limits (-10.0 170.0)
  end
  begin
     id 20
     name lwrist
     direction 1 -4.48976e-011 1.5779e-026   
     length 1.5553   
     axis -1.15221e-014 90 90   XYZ
    dof ry
    limits (-180.0 0.0)
 end
  begin
     id 21 
     name lhand
     direction 1 -4.49025e-011 3.1558e-026   
     length 0.419626   
     axis -2.01367e-014 90 90   XYZ
    dof rx rz
    limits (-90.0 90.0)
           (-45.0 45.0)
  end
  begin
     id 22 
     name lfingers
     direction 1 -4.4904e-011 6.31161e-026   
     length 0.338313   
     axis -4.02734e-014 90 90   XYZ
    dof rx
    limits (0.0 90.0)
  end
  begin
     id 23
     name lthumb
     direction 0.707107 -6.35004e-011 0.707107   
     length 0.485752   
     axis -90 45 2.85299e-015   XYZ
    dof rx rz
    limits (-45.0 45.0)
           (-45.0 45.0)
  end
  begin
     id 24 
     name rclavicle
     direction -0.968876 0.223791 0.105816   
     length 3.04177  
     axis 0 0 0   XYZ 
    dof ry rz
    limits (-10.0 20.0)
           (-20.0 0.0)
  end
  begin
     id 25 
     name rhumerus
     direction -1 -4.48962e-011 -1.01384e-027  
     length 5.25396   
     axis 180 30 90   XYZ
    dof rx ry rz
    limits (-90.0 60.0)
           (-90.0 90.0)
           (-90.0 90.0)
  end
  begin
     id 26 
     name rradius
     direction -1 -4.48955e-011 8.88542e-027   
     length 3.10567   
     axis 180 30 90   XYZ
    dof rx
    limits (-10.0 170.0)
  end
  begin
     id 27 
     name rwrist
     direction -1 -4.48994e-011 1.5779e-026   
     length 1.55283   
     axis -1.15221e-014 -90 -90   XYZ
    dof ry
    limits (-180.0 0.0)
  end
  begin
     id 28
     name rhand
     direction -1 -4.48891e-011 3.1558e-026   
     length 0.498676   
     axis -2.01367e-014 -90 -90   XYZ
    dof rx rz
    limits (-90.0 90.0)
           (-45.0 45.0)
  end
  begin
     id 29
     name rfingers
     direction -1 -4.48972e-011 6.31161e-026   
     length 0.402045   
     axis -4.02734e-014 -90 -90   XYZ
    dof rx
    limits (0.0 90.0)
  end
  begin
     id 30
     name rthumb
     direction -0.707107 -6.34849e-011 0.707107   
     length 0.577259   
     axis -90 -45 -2.85299e-015   XYZ
    dof rx rz
    limits (-45.0 45.0)
           (-45.0 45.0)
  end
:hierarchy
  begin
    root lhipjoint rhipjoint lowerback
    lhipjoint lfemur
    lfemur ltibia
    ltibia lfoot
    lfoot ltoes
    rhipjoint rfemur
    rfemur rtibia
    rtibia rfoot
    rfoot rtoes
    lowerback upperback
    upperback thorax
    thorax lowerneck lclavicle rclavicle
    lowerneck upperneck
    upperneck head
    lclavicle lhumerus
    lhumerus lradius
    lradius lwrist
    lwrist lhand lthumb
    lhand lfingers
    rclavicle rhumerus
    rhumerus rradius
    rradius rwrist
    rwrist rhand rthumb
    rhand rfingers
  end

#!OML:ASF H:\Pregnant\Project 1\Capture day 1\Session 1\femalepreg.ASF
:FULLY-SPECIFIED
:DEGREES
229
root -2.74515 15.3921 25.2573 201.397 -21.9571 -177.768
lowerback -14.3652 1.3781 -9.30386
upperback -6.93279 2.15268 -3.25728
thorax 0.389693 0.843638 2.10337
lowerneck -26.8183 6.78068 7.93294
upperneck 32.9689 5.6105 -0.471346
head 16.7154 2.92465 -0.409889
rclavicle -3.04141e-014 3.18055e-015
rhumerus -7.84935 33.9625 -65.2464
rradius 64.1697
rwrist -49.2051
rhand -23.1163 -53.3316
rfingers 7.12502
rthumb 3.33078 -83.2853
lclavicle -3.04141e-014 3.18055e-015
lhumerus 1.49659 -43.4508 51.4122
lradius 64.714
lwrist 69.1358
lhand -36.1122 32.4177
lfingers 7.12502
lthumb -9.21803 62.1962
rfemur -52.0621 10.3484 16.4784
rtibia 70.8768
rfoot -8.8516 -7.85782
rtoes -7.44062
lfemur -41.0294 -5.00208 -14.1571
ltibia 31.98
lfoot -10.5692 9.45008
ltoes -38.3297
230
root -2.79778 15.3983 25.203 201.42 -21.7356 -177.611
lowerback -14.3713 1.39691 -9.28432
upperback -6.96911 2.16587 -3.26802
thorax 0.353937 0.848786 2.08254
lowerneck -26.849 6.81712 8.02383
upperneck 33.0099 5.62328 -0.496857
head 16.7498 2.93592 -0.432318
rclavicle -5.25785e-014 8.74653e-014
rhumerus -7.87098 33.8453 -65.2738
rradius 64.2599
rwrist -49.2102
rhand -23.1531 -53.3679
rfingers 7.12502
rthumb 3.29524 -83.3222
lclavicle -5.25785e-014 8.74653e-014
lhumerus 1.71253 -43.5319 51.1689
lradius 64.7373
lwrist 69.2671
lhand -36.1359 32.4186
lfingers 7.12502
lthumb -9.24097 62.1961
rfemur -52.6739 10.3724 16.5319
rtibia 70.3251
rfoot -9.12363 -8.21451
rtoes -7.43602
lfemur -40.8234 -4.83142 -14.2062
ltibia 32.1194
lfoot -10.8506 9.65223
ltoes -38.3083
231
root -2.84982 15.4031 25.1477 201.461 -21.5031 -177.461
lowerback -14.3952 1.41864 -9.27344
upperback -7.01449 2.18387 -3.26838
thorax 0.316497 0.856411 2.07829
lowerneck -26.8632 6.85173 8.10206
upperneck 33.0594 5.63919 -0.521556
head 16.7844 2.94652 -0.452161
rclavicle -2.51463e-014 3.49861e-014
rhumerus -7.89683 33.7311 -65.2889
rradius 64.3565
rwrist -49.2102
rhand -23.1783 -53.4196
rfingers 7.12502
rthumb 3.27096 -83.3743
lclavicle -2.51463e-014 3.49861e-014
lhumerus 1.90792 -43.6089 50.9577
lradius 64.7606
lwrist 69.4135
lhand -36.1567 32.4205
lfingers 7.12502
lthumb -9.26101 62.1971
rfemur -53.2781 10.4067 16.5667
rtibia 69.6691
rfoot -9.39185 -8.53836
rtoes -7.46581
lfemur -40.632 -4.66007 -14.2591
ltibia 32.2637
lfoot -11.127 9.87138
ltoes -38.3131
232
root -2.90138 15.4072 25.0914 201.519 -21.2644 -177.32
lowerback -14.4557 1.43672 -9.28281
upperback -7.04855 2.20626 -3.2437
thorax 0.307984 0.866469 2.11326
lowerneck -26.8878 6.88259 8.14793
upperneck 33.1098 5.66781 -0.552929
head 16.8209 2.95729 -0.466484
rclavicle -2.34566e-014 -1.06549e-013
rhumerus -7.87154 33.6325 -65.2299
rradius 64.4536
rwrist -49.2258
rhand -23.1863 -53.489
rfingers 7.12502
rthumb 3.26318 -83.4438
lclavicle -2.34566e-014 -1.06549e-013
lhumerus 2.10615 -43.6528 50.7878
lradius 64.78
lwrist 69.5632
lhand -36.1684 32.4315
lfingers 7.12502
lthumb -9.27226 62.2077
rfemur -53.8698 10.4436 16.5823
rtibia 68.908
rfoot -9.65291 -8.82377
rtoes -7.52719
lfemur -40.4495 -4.49408 -14.3157
ltibia 32.4006
lfoot -11.3955 10.1013
ltoes -38.3416
233
root -2.95238 15.4112 25.0342 201.59 -21.0315 -177.188
lowerback -14.5347 1.45131 -9.30258
upperback -7.07376 2.22961 -3.20267
thorax 0.317364 0.87731 2.17196
lowerneck -26.936 6.90774 8.16771
upperneck 33.1699 5.69986 -0.586998
head 16.8667 2.96569 -0.476259
rclavicle -7.95139e-016 -7.63333e-014
rhumerus -7.80503 33.5435 -65.1156
rradius 64.5463
rwrist -49.2533
rhand -23.174 -53.5618
rfingers 7.12502
rthumb 3.2751 -83.5164
lclavicle -7.95139e-016 -7.63333e-014
lhumerus 2.31646 -43.6743 50.6426
lradius 64.794
lwrist 69.7089
lhand -36.1731 32.4403
lfingers 7.12502
lthumb -9.27686 62.2162
rfemur -54.4374 10.4726 16.5825
rtibia 68.0441
rfoot -9.90395 -9.06731
rtoes -7.61109
lfemur -40.2676 -4.34277 -14.3744
ltibia 32.5205
lfoot -11.6511 10.3384
ltoes -38.3797
234
root -3.00275 15.4157 24.9758 201.667 -20.8092 -177.065
lowerback -14.6313 1.46219 -9.33109
upperback -7.08641 2.2542 -3.14663
thorax 0.34832 0.888992 2.25218
lowerneck -27.0108 6.92359 8.16122
upperneck 33.237 5.73013 -0.62369
head 16.9209 2.96969 -0.482527
rclavicle -2.90226e-014 3.65764e-014
rhumerus -7.70125 33.4589 -64.9503
rradius 64.6378
rwrist -49.2964
rhand -23.1736 -53.6164
rfingers 7.12502
rthumb 3.27541 -83.571
lclavicle -2.90226e-014 3.65764e-014
lhumerus 2.54307 -43.6781 50.5144
lradius 64.8084
lwrist 69.8518
lhand -36.1723 32.4504
lfingers 7.12502
lthumb -9.27608 62.2263
rfemur -54.9711 10.4935 16.5677
rtibia 67.0814
rfoot -10.1461 -9.26634
rtoes -7.69606
lfemur -40.075 -4.20621 -14.4338
ltibia 32.6131
lfoot -11.8987 10.5684
ltoes -38.4175
